<svg width="64" height="64" viewBox="0 0 64 64" xmlns="http://www.w3.org/2000/svg">
  <defs>
    <linearGradient id="docGradient" x1="0%" y1="0%" x2="100%" y2="100%">
      <stop offset="0%" style="stop-color:#667eea;stop-opacity:1" />
      <stop offset="100%" style="stop-color:#764ba2;stop-opacity:1" />
    </linearGradient>
    <linearGradient id="aiGradient" x1="0%" y1="0%" x2="100%" y2="100%">
      <stop offset="0%" style="stop-color:#f093fb;stop-opacity:1" />
      <stop offset="100%" style="stop-color:#f5576c;stop-opacity:1" />
    </linearGradient>
  </defs>
  
  <!-- Background circle -->
  <circle cx="32" cy="32" r="30" fill="url(#docGradient)" stroke="#fff" stroke-width="2"/>
  
  <!-- Document icon -->
  <rect x="18" y="12" width="20" height="26" rx="2" fill="white" opacity="0.9"/>
  <rect x="18" y="12" width="20" height="26" rx="2" fill="none" stroke="#667eea" stroke-width="1.5"/>
  
  <!-- Document lines (representing text) -->
  <line x1="22" y1="18" x2="34" y2="18" stroke="#667eea" stroke-width="1.5" stroke-linecap="round"/>
  <line x1="22" y1="22" x2="32" y2="22" stroke="#667eea" stroke-width="1.5" stroke-linecap="round"/>
  <line x1="22" y1="26" x2="34" y2="26" stroke="#667eea" stroke-width="1.5" stroke-linecap="round"/>
  <line x1="22" y1="30" x2="30" y2="30" stroke="#667eea" stroke-width="1.5" stroke-linecap="round"/>
  
  <!-- AI brain/summary icon -->
  <circle cx="44" cy="44" r="8" fill="url(#aiGradient)" opacity="0.9"/>
  <circle cx="42" cy="42" r="1.5" fill="white"/>
  <circle cx="46" cy="42" r="1.5" fill="white"/>
  <circle cx="44" cy="46" r="1.5" fill="white"/>
  <path d="M 40 46 Q 44 48 48 46" stroke="white" stroke-width="1.5" fill="none" stroke-linecap="round"/>
  
  <!-- Connection line (AI processing) -->
  <path d="M 38 32 Q 42 36 40 40" stroke="url(#aiGradient)" stroke-width="2" fill="none" stroke-dasharray="2,2" opacity="0.7"/>
</svg>